<mxfile host="app.diagrams.net" agent="Mozilla/5.0 (Windows NT 10.0; Win64; x64) AppleWebKit/537.36 (KHTML, like Gecko) Chrome/129.0.0.0 Safari/537.36" version="24.7.17">
  <diagram id="C5RBs43oDa-KdzZeNtuy" name="Page-1">
    <mxGraphModel dx="880" dy="460" grid="1" gridSize="10" guides="1" tooltips="1" connect="1" arrows="1" fold="1" page="1" pageScale="1" pageWidth="827" pageHeight="1169" math="0" shadow="0">
      <root>
        <mxCell id="WIyWlLk6GJQsqaUBKTNV-0" />
        <mxCell id="WIyWlLk6GJQsqaUBKTNV-1" parent="WIyWlLk6GJQsqaUBKTNV-0" />
        <mxCell id="ttL28P239rOxmT9tzjyc-0" value="&lt;font style=&quot;font-size: 16px; background-color: rgb(255, 255, 51);&quot;&gt;FLOWCHART POTONGAN BELANJA&lt;/font&gt;&lt;div style=&quot;font-size: 16px;&quot;&gt;&lt;br&gt;&lt;/div&gt;" style="text;html=1;align=center;verticalAlign=middle;resizable=0;points=[];autosize=1;strokeColor=none;fillColor=none;" vertex="1" parent="WIyWlLk6GJQsqaUBKTNV-1">
          <mxGeometry x="260" y="15" width="300" height="50" as="geometry" />
        </mxCell>
        <mxCell id="ttL28P239rOxmT9tzjyc-1" value="Start/mulai" style="strokeWidth=2;html=1;shape=mxgraph.flowchart.terminator;whiteSpace=wrap;" vertex="1" parent="WIyWlLk6GJQsqaUBKTNV-1">
          <mxGeometry x="350" y="60" width="100" height="40" as="geometry" />
        </mxCell>
        <mxCell id="ttL28P239rOxmT9tzjyc-2" value="" style="endArrow=classic;html=1;rounded=0;" edge="1" parent="WIyWlLk6GJQsqaUBKTNV-1">
          <mxGeometry width="50" height="50" relative="1" as="geometry">
            <mxPoint x="400" y="100" as="sourcePoint" />
            <mxPoint x="400" y="130" as="targetPoint" />
          </mxGeometry>
        </mxCell>
        <mxCell id="ttL28P239rOxmT9tzjyc-4" value="Input Total Belanja dan Status Member" style="shape=parallelogram;perimeter=parallelogramPerimeter;whiteSpace=wrap;html=1;fixedSize=1;strokeWidth=2;" vertex="1" parent="WIyWlLk6GJQsqaUBKTNV-1">
          <mxGeometry x="300" y="130" width="200" height="50" as="geometry" />
        </mxCell>
        <mxCell id="ttL28P239rOxmT9tzjyc-8" value="" style="edgeStyle=orthogonalEdgeStyle;rounded=0;orthogonalLoop=1;jettySize=auto;html=1;" edge="1" parent="WIyWlLk6GJQsqaUBKTNV-1" source="ttL28P239rOxmT9tzjyc-5" target="ttL28P239rOxmT9tzjyc-7">
          <mxGeometry relative="1" as="geometry" />
        </mxCell>
        <mxCell id="ttL28P239rOxmT9tzjyc-5" value="Program mengambil data dari form" style="rounded=1;whiteSpace=wrap;html=1;absoluteArcSize=1;arcSize=14;strokeWidth=2;" vertex="1" parent="WIyWlLk6GJQsqaUBKTNV-1">
          <mxGeometry x="340" y="210" width="120" height="50" as="geometry" />
        </mxCell>
        <mxCell id="ttL28P239rOxmT9tzjyc-6" value="" style="endArrow=classic;html=1;rounded=0;exitX=0.5;exitY=1;exitDx=0;exitDy=0;entryX=0.5;entryY=0;entryDx=0;entryDy=0;" edge="1" parent="WIyWlLk6GJQsqaUBKTNV-1" source="ttL28P239rOxmT9tzjyc-4" target="ttL28P239rOxmT9tzjyc-5">
          <mxGeometry width="50" height="50" relative="1" as="geometry">
            <mxPoint x="400" y="230" as="sourcePoint" />
            <mxPoint x="380" y="210" as="targetPoint" />
          </mxGeometry>
        </mxCell>
        <mxCell id="ttL28P239rOxmT9tzjyc-10" value="" style="edgeStyle=orthogonalEdgeStyle;rounded=0;orthogonalLoop=1;jettySize=auto;html=1;" edge="1" parent="WIyWlLk6GJQsqaUBKTNV-1" source="ttL28P239rOxmT9tzjyc-7" target="ttL28P239rOxmT9tzjyc-9">
          <mxGeometry relative="1" as="geometry" />
        </mxCell>
        <mxCell id="ttL28P239rOxmT9tzjyc-7" value="Menginisialisasi nilai diskon dan potongan member" style="rounded=1;whiteSpace=wrap;html=1;absoluteArcSize=1;arcSize=14;strokeWidth=2;" vertex="1" parent="WIyWlLk6GJQsqaUBKTNV-1">
          <mxGeometry x="317.5" y="290" width="165" height="50" as="geometry" />
        </mxCell>
        <mxCell id="ttL28P239rOxmT9tzjyc-12" value="" style="edgeStyle=orthogonalEdgeStyle;rounded=0;orthogonalLoop=1;jettySize=auto;html=1;" edge="1" parent="WIyWlLk6GJQsqaUBKTNV-1" source="ttL28P239rOxmT9tzjyc-9" target="ttL28P239rOxmT9tzjyc-11">
          <mxGeometry relative="1" as="geometry" />
        </mxCell>
        <mxCell id="ttL28P239rOxmT9tzjyc-13" value="YA" style="edgeLabel;html=1;align=center;verticalAlign=middle;resizable=0;points=[];" vertex="1" connectable="0" parent="ttL28P239rOxmT9tzjyc-12">
          <mxGeometry x="-0.312" y="2" relative="1" as="geometry">
            <mxPoint x="3" y="-17" as="offset" />
          </mxGeometry>
        </mxCell>
        <mxCell id="ttL28P239rOxmT9tzjyc-48" value="" style="edgeStyle=orthogonalEdgeStyle;rounded=0;orthogonalLoop=1;jettySize=auto;html=1;" edge="1" parent="WIyWlLk6GJQsqaUBKTNV-1" source="ttL28P239rOxmT9tzjyc-9">
          <mxGeometry relative="1" as="geometry">
            <mxPoint x="520" y="390" as="targetPoint" />
          </mxGeometry>
        </mxCell>
        <mxCell id="ttL28P239rOxmT9tzjyc-9" value="Apakah Pengguna Member?" style="strokeWidth=2;html=1;shape=mxgraph.flowchart.decision;whiteSpace=wrap;" vertex="1" parent="WIyWlLk6GJQsqaUBKTNV-1">
          <mxGeometry x="350" y="360" width="100" height="70" as="geometry" />
        </mxCell>
        <mxCell id="ttL28P239rOxmT9tzjyc-15" value="" style="edgeStyle=orthogonalEdgeStyle;rounded=0;orthogonalLoop=1;jettySize=auto;html=1;" edge="1" parent="WIyWlLk6GJQsqaUBKTNV-1" source="ttL28P239rOxmT9tzjyc-11" target="ttL28P239rOxmT9tzjyc-14">
          <mxGeometry relative="1" as="geometry" />
        </mxCell>
        <mxCell id="ttL28P239rOxmT9tzjyc-11" value="Set potonganMember = 10%" style="rounded=1;whiteSpace=wrap;html=1;absoluteArcSize=1;arcSize=14;strokeWidth=2;" vertex="1" parent="WIyWlLk6GJQsqaUBKTNV-1">
          <mxGeometry x="70" y="310" width="165" height="50" as="geometry" />
        </mxCell>
        <mxCell id="ttL28P239rOxmT9tzjyc-14" value="Apakah Total Belanja &amp;gt; 1.000.000?" style="strokeWidth=2;html=1;shape=mxgraph.flowchart.decision;whiteSpace=wrap;" vertex="1" parent="WIyWlLk6GJQsqaUBKTNV-1">
          <mxGeometry x="67.5" y="400" width="170" height="120" as="geometry" />
        </mxCell>
        <mxCell id="ttL28P239rOxmT9tzjyc-16" value="Dsikon 15%" style="rounded=1;whiteSpace=wrap;html=1;absoluteArcSize=1;arcSize=14;strokeWidth=2;" vertex="1" parent="WIyWlLk6GJQsqaUBKTNV-1">
          <mxGeometry x="10" y="550" width="70" height="45" as="geometry" />
        </mxCell>
        <mxCell id="ttL28P239rOxmT9tzjyc-17" value="Diskon 0%" style="rounded=1;whiteSpace=wrap;html=1;absoluteArcSize=1;arcSize=14;strokeWidth=2;" vertex="1" parent="WIyWlLk6GJQsqaUBKTNV-1">
          <mxGeometry x="344" y="610" width="70" height="50" as="geometry" />
        </mxCell>
        <mxCell id="ttL28P239rOxmT9tzjyc-21" value="" style="edgeStyle=orthogonalEdgeStyle;rounded=0;orthogonalLoop=1;jettySize=auto;html=1;entryX=0.5;entryY=0;entryDx=0;entryDy=0;exitX=0;exitY=0.5;exitDx=0;exitDy=0;exitPerimeter=0;" edge="1" parent="WIyWlLk6GJQsqaUBKTNV-1" source="ttL28P239rOxmT9tzjyc-14" target="ttL28P239rOxmT9tzjyc-16">
          <mxGeometry relative="1" as="geometry">
            <mxPoint x="67.5" y="450" as="sourcePoint" />
            <mxPoint x="37.5" y="510" as="targetPoint" />
            <Array as="points">
              <mxPoint x="45" y="460" />
            </Array>
          </mxGeometry>
        </mxCell>
        <mxCell id="ttL28P239rOxmT9tzjyc-22" value="YA" style="edgeLabel;html=1;align=center;verticalAlign=middle;resizable=0;points=[];" vertex="1" connectable="0" parent="ttL28P239rOxmT9tzjyc-21">
          <mxGeometry x="-0.312" y="2" relative="1" as="geometry">
            <mxPoint x="-12" y="2" as="offset" />
          </mxGeometry>
        </mxCell>
        <mxCell id="ttL28P239rOxmT9tzjyc-34" value="Apakah&amp;nbsp;Total Belanja &amp;gt;= 500.000?" style="strokeWidth=2;html=1;shape=mxgraph.flowchart.decision;whiteSpace=wrap;" vertex="1" parent="WIyWlLk6GJQsqaUBKTNV-1">
          <mxGeometry x="200" y="500" width="170" height="110" as="geometry" />
        </mxCell>
        <mxCell id="ttL28P239rOxmT9tzjyc-36" value="" style="endArrow=classic;html=1;rounded=0;entryX=0.5;entryY=0;entryDx=0;entryDy=0;entryPerimeter=0;exitX=0.962;exitY=0.483;exitDx=0;exitDy=0;exitPerimeter=0;" edge="1" parent="WIyWlLk6GJQsqaUBKTNV-1" source="ttL28P239rOxmT9tzjyc-14" target="ttL28P239rOxmT9tzjyc-34">
          <mxGeometry width="50" height="50" relative="1" as="geometry">
            <mxPoint x="240" y="460" as="sourcePoint" />
            <mxPoint x="290" y="410" as="targetPoint" />
          </mxGeometry>
        </mxCell>
        <mxCell id="ttL28P239rOxmT9tzjyc-38" value="" style="endArrow=classic;html=1;rounded=0;exitX=0;exitY=0.5;exitDx=0;exitDy=0;exitPerimeter=0;" edge="1" parent="WIyWlLk6GJQsqaUBKTNV-1" source="ttL28P239rOxmT9tzjyc-34">
          <mxGeometry width="50" height="50" relative="1" as="geometry">
            <mxPoint x="200" y="560" as="sourcePoint" />
            <mxPoint x="190" y="620" as="targetPoint" />
          </mxGeometry>
        </mxCell>
        <mxCell id="ttL28P239rOxmT9tzjyc-39" value="&lt;span style=&quot;color: rgb(0, 0, 0); font-family: Helvetica; font-size: 11px; font-style: normal; font-variant-ligatures: normal; font-variant-caps: normal; font-weight: 400; letter-spacing: normal; orphans: 2; text-align: center; text-indent: 0px; text-transform: none; widows: 2; word-spacing: 0px; -webkit-text-stroke-width: 0px; white-space: nowrap; background-color: rgb(255, 255, 255); text-decoration-thickness: initial; text-decoration-style: initial; text-decoration-color: initial; display: inline !important; float: none;&quot;&gt;YA&lt;/span&gt;" style="text;whiteSpace=wrap;html=1;" vertex="1" parent="WIyWlLk6GJQsqaUBKTNV-1">
          <mxGeometry x="185" y="570" width="50" height="40" as="geometry" />
        </mxCell>
        <mxCell id="ttL28P239rOxmT9tzjyc-40" value="TIDAK" style="text;html=1;align=center;verticalAlign=middle;resizable=0;points=[];autosize=1;strokeColor=none;fillColor=none;" vertex="1" parent="WIyWlLk6GJQsqaUBKTNV-1">
          <mxGeometry x="250" y="460" width="60" height="30" as="geometry" />
        </mxCell>
        <mxCell id="ttL28P239rOxmT9tzjyc-42" value="Dsikon 10%" style="rounded=1;whiteSpace=wrap;html=1;absoluteArcSize=1;arcSize=14;strokeWidth=2;" vertex="1" parent="WIyWlLk6GJQsqaUBKTNV-1">
          <mxGeometry x="160" y="620" width="70" height="45" as="geometry" />
        </mxCell>
        <mxCell id="ttL28P239rOxmT9tzjyc-44" value="" style="endArrow=classic;html=1;rounded=0;exitX=0.953;exitY=0.555;exitDx=0;exitDy=0;exitPerimeter=0;" edge="1" parent="WIyWlLk6GJQsqaUBKTNV-1" source="ttL28P239rOxmT9tzjyc-34">
          <mxGeometry width="50" height="50" relative="1" as="geometry">
            <mxPoint x="370" y="560" as="sourcePoint" />
            <mxPoint x="380" y="610" as="targetPoint" />
          </mxGeometry>
        </mxCell>
        <mxCell id="ttL28P239rOxmT9tzjyc-46" value="&lt;span style=&quot;color: rgb(0, 0, 0); font-family: Helvetica; font-size: 12px; font-style: normal; font-variant-ligatures: normal; font-variant-caps: normal; font-weight: 400; letter-spacing: normal; orphans: 2; text-align: center; text-indent: 0px; text-transform: none; widows: 2; word-spacing: 0px; -webkit-text-stroke-width: 0px; white-space: nowrap; background-color: rgb(251, 251, 251); text-decoration-thickness: initial; text-decoration-style: initial; text-decoration-color: initial; display: inline !important; float: none;&quot;&gt;TIDAK&lt;/span&gt;" style="text;whiteSpace=wrap;html=1;" vertex="1" parent="WIyWlLk6GJQsqaUBKTNV-1">
          <mxGeometry x="360" y="570" width="70" height="40" as="geometry" />
        </mxCell>
        <mxCell id="ttL28P239rOxmT9tzjyc-49" value="&lt;span style=&quot;color: rgb(0, 0, 0); font-family: Helvetica; font-size: 12px; font-style: normal; font-variant-ligatures: normal; font-variant-caps: normal; font-weight: 400; letter-spacing: normal; orphans: 2; text-align: center; text-indent: 0px; text-transform: none; widows: 2; word-spacing: 0px; -webkit-text-stroke-width: 0px; white-space: nowrap; background-color: rgb(251, 251, 251); text-decoration-thickness: initial; text-decoration-style: initial; text-decoration-color: initial; display: inline !important; float: none;&quot;&gt;TIDAK&lt;/span&gt;" style="text;whiteSpace=wrap;html=1;" vertex="1" parent="WIyWlLk6GJQsqaUBKTNV-1">
          <mxGeometry x="450" y="370" width="70" height="40" as="geometry" />
        </mxCell>
        <mxCell id="ttL28P239rOxmT9tzjyc-50" value="Apakah Total Belanja &amp;gt; 1.000.000?" style="strokeWidth=2;html=1;shape=mxgraph.flowchart.decision;whiteSpace=wrap;" vertex="1" parent="WIyWlLk6GJQsqaUBKTNV-1">
          <mxGeometry x="520" y="330" width="170" height="120" as="geometry" />
        </mxCell>
        <mxCell id="ttL28P239rOxmT9tzjyc-55" value="" style="edgeStyle=orthogonalEdgeStyle;rounded=0;orthogonalLoop=1;jettySize=auto;html=1;" edge="1" parent="WIyWlLk6GJQsqaUBKTNV-1" source="ttL28P239rOxmT9tzjyc-51" target="ttL28P239rOxmT9tzjyc-54">
          <mxGeometry relative="1" as="geometry" />
        </mxCell>
        <mxCell id="ttL28P239rOxmT9tzjyc-60" value="" style="edgeStyle=orthogonalEdgeStyle;rounded=0;orthogonalLoop=1;jettySize=auto;html=1;" edge="1" parent="WIyWlLk6GJQsqaUBKTNV-1" source="ttL28P239rOxmT9tzjyc-51" target="ttL28P239rOxmT9tzjyc-59">
          <mxGeometry relative="1" as="geometry" />
        </mxCell>
        <mxCell id="ttL28P239rOxmT9tzjyc-51" value="Apakah Total Belanja ≥ 500.000?" style="strokeWidth=2;html=1;shape=mxgraph.flowchart.decision;whiteSpace=wrap;" vertex="1" parent="WIyWlLk6GJQsqaUBKTNV-1">
          <mxGeometry x="657" y="440" width="170" height="120" as="geometry" />
        </mxCell>
        <mxCell id="ttL28P239rOxmT9tzjyc-52" value="" style="endArrow=classic;html=1;rounded=0;entryX=0.5;entryY=0;entryDx=0;entryDy=0;entryPerimeter=0;" edge="1" parent="WIyWlLk6GJQsqaUBKTNV-1" target="ttL28P239rOxmT9tzjyc-51">
          <mxGeometry width="50" height="50" relative="1" as="geometry">
            <mxPoint x="690" y="390" as="sourcePoint" />
            <mxPoint x="740" y="340" as="targetPoint" />
          </mxGeometry>
        </mxCell>
        <mxCell id="ttL28P239rOxmT9tzjyc-53" value="TIDAK" style="text;html=1;align=center;verticalAlign=middle;resizable=0;points=[];autosize=1;strokeColor=none;fillColor=none;" vertex="1" parent="WIyWlLk6GJQsqaUBKTNV-1">
          <mxGeometry x="690" y="388" width="60" height="30" as="geometry" />
        </mxCell>
        <mxCell id="ttL28P239rOxmT9tzjyc-54" value="Diskon 0%" style="rounded=1;whiteSpace=wrap;html=1;absoluteArcSize=1;arcSize=14;strokeWidth=2;" vertex="1" parent="WIyWlLk6GJQsqaUBKTNV-1">
          <mxGeometry x="880" y="470" width="70" height="50" as="geometry" />
        </mxCell>
        <mxCell id="ttL28P239rOxmT9tzjyc-56" value="TIDAK&lt;div&gt;&lt;br&gt;&lt;/div&gt;" style="text;html=1;align=center;verticalAlign=middle;resizable=0;points=[];autosize=1;strokeColor=none;fillColor=none;" vertex="1" parent="WIyWlLk6GJQsqaUBKTNV-1">
          <mxGeometry x="810" y="473" width="60" height="40" as="geometry" />
        </mxCell>
        <mxCell id="ttL28P239rOxmT9tzjyc-57" value="Dsikon 10%" style="rounded=1;whiteSpace=wrap;html=1;absoluteArcSize=1;arcSize=14;strokeWidth=2;" vertex="1" parent="WIyWlLk6GJQsqaUBKTNV-1">
          <mxGeometry x="510" y="490" width="70" height="45" as="geometry" />
        </mxCell>
        <mxCell id="ttL28P239rOxmT9tzjyc-58" value="" style="endArrow=classic;html=1;rounded=0;entryX=0.75;entryY=0;entryDx=0;entryDy=0;" edge="1" parent="WIyWlLk6GJQsqaUBKTNV-1" target="ttL28P239rOxmT9tzjyc-57">
          <mxGeometry width="50" height="50" relative="1" as="geometry">
            <mxPoint x="600" y="450" as="sourcePoint" />
            <mxPoint x="650" y="400" as="targetPoint" />
          </mxGeometry>
        </mxCell>
        <mxCell id="ttL28P239rOxmT9tzjyc-59" value="Dsikon 5%" style="rounded=1;whiteSpace=wrap;html=1;absoluteArcSize=1;arcSize=14;strokeWidth=2;" vertex="1" parent="WIyWlLk6GJQsqaUBKTNV-1">
          <mxGeometry x="670" y="595" width="70" height="45" as="geometry" />
        </mxCell>
        <mxCell id="ttL28P239rOxmT9tzjyc-61" value="YA" style="text;html=1;align=center;verticalAlign=middle;resizable=0;points=[];autosize=1;strokeColor=none;fillColor=none;" vertex="1" parent="WIyWlLk6GJQsqaUBKTNV-1">
          <mxGeometry x="560" y="448" width="40" height="30" as="geometry" />
        </mxCell>
        <mxCell id="ttL28P239rOxmT9tzjyc-62" value="YA" style="text;html=1;align=center;verticalAlign=middle;resizable=0;points=[];autosize=1;strokeColor=none;fillColor=none;" vertex="1" parent="WIyWlLk6GJQsqaUBKTNV-1">
          <mxGeometry x="690" y="558" width="40" height="30" as="geometry" />
        </mxCell>
        <mxCell id="ttL28P239rOxmT9tzjyc-64" value="End/Selesai" style="strokeWidth=2;html=1;shape=mxgraph.flowchart.terminator;whiteSpace=wrap;" vertex="1" parent="WIyWlLk6GJQsqaUBKTNV-1">
          <mxGeometry x="390" y="910" width="100" height="40" as="geometry" />
        </mxCell>
        <mxCell id="ttL28P239rOxmT9tzjyc-65" value="Hitung Potongan" style="rounded=1;whiteSpace=wrap;html=1;absoluteArcSize=1;arcSize=14;strokeWidth=2;" vertex="1" parent="WIyWlLk6GJQsqaUBKTNV-1">
          <mxGeometry x="390" y="730" width="120" height="50" as="geometry" />
        </mxCell>
        <mxCell id="ttL28P239rOxmT9tzjyc-76" value="" style="edgeStyle=orthogonalEdgeStyle;rounded=0;orthogonalLoop=1;jettySize=auto;html=1;" edge="1" parent="WIyWlLk6GJQsqaUBKTNV-1" source="ttL28P239rOxmT9tzjyc-67" target="ttL28P239rOxmT9tzjyc-64">
          <mxGeometry relative="1" as="geometry">
            <Array as="points">
              <mxPoint x="440" y="890" />
              <mxPoint x="440" y="890" />
            </Array>
          </mxGeometry>
        </mxCell>
        <mxCell id="ttL28P239rOxmT9tzjyc-67" value="Tampilkan Hasil" style="shape=parallelogram;perimeter=parallelogramPerimeter;whiteSpace=wrap;html=1;fixedSize=1;strokeWidth=2;" vertex="1" parent="WIyWlLk6GJQsqaUBKTNV-1">
          <mxGeometry x="350" y="820" width="200" height="50" as="geometry" />
        </mxCell>
        <mxCell id="ttL28P239rOxmT9tzjyc-69" value="" style="endArrow=classic;html=1;rounded=0;entryX=-0.025;entryY=0.64;entryDx=0;entryDy=0;entryPerimeter=0;" edge="1" parent="WIyWlLk6GJQsqaUBKTNV-1" target="ttL28P239rOxmT9tzjyc-65">
          <mxGeometry width="50" height="50" relative="1" as="geometry">
            <mxPoint x="37" y="590" as="sourcePoint" />
            <mxPoint x="80" y="550" as="targetPoint" />
            <Array as="points">
              <mxPoint x="110" y="730" />
            </Array>
          </mxGeometry>
        </mxCell>
        <mxCell id="ttL28P239rOxmT9tzjyc-70" value="" style="endArrow=classic;html=1;rounded=0;exitX=0.357;exitY=0.978;exitDx=0;exitDy=0;exitPerimeter=0;entryX=0;entryY=0.25;entryDx=0;entryDy=0;" edge="1" parent="WIyWlLk6GJQsqaUBKTNV-1" source="ttL28P239rOxmT9tzjyc-42" target="ttL28P239rOxmT9tzjyc-65">
          <mxGeometry width="50" height="50" relative="1" as="geometry">
            <mxPoint x="430" y="710" as="sourcePoint" />
            <mxPoint x="480" y="660" as="targetPoint" />
          </mxGeometry>
        </mxCell>
        <mxCell id="ttL28P239rOxmT9tzjyc-71" value="" style="endArrow=classic;html=1;rounded=0;entryX=0.417;entryY=-0.04;entryDx=0;entryDy=0;entryPerimeter=0;" edge="1" parent="WIyWlLk6GJQsqaUBKTNV-1" target="ttL28P239rOxmT9tzjyc-65">
          <mxGeometry width="50" height="50" relative="1" as="geometry">
            <mxPoint x="380" y="660" as="sourcePoint" />
            <mxPoint x="430" y="610" as="targetPoint" />
          </mxGeometry>
        </mxCell>
        <mxCell id="ttL28P239rOxmT9tzjyc-72" value="" style="endArrow=classic;html=1;rounded=0;entryX=0.625;entryY=-0.06;entryDx=0;entryDy=0;entryPerimeter=0;" edge="1" parent="WIyWlLk6GJQsqaUBKTNV-1" target="ttL28P239rOxmT9tzjyc-65">
          <mxGeometry width="50" height="50" relative="1" as="geometry">
            <mxPoint x="700" y="640" as="sourcePoint" />
            <mxPoint x="750" y="590" as="targetPoint" />
          </mxGeometry>
        </mxCell>
        <mxCell id="ttL28P239rOxmT9tzjyc-73" value="" style="endArrow=classic;html=1;rounded=0;entryX=0.5;entryY=0;entryDx=0;entryDy=0;exitX=0.371;exitY=0.956;exitDx=0;exitDy=0;exitPerimeter=0;" edge="1" parent="WIyWlLk6GJQsqaUBKTNV-1" source="ttL28P239rOxmT9tzjyc-57" target="ttL28P239rOxmT9tzjyc-65">
          <mxGeometry width="50" height="50" relative="1" as="geometry">
            <mxPoint x="520" y="580" as="sourcePoint" />
            <mxPoint x="830" y="670" as="targetPoint" />
            <Array as="points">
              <mxPoint x="520" y="570" />
            </Array>
          </mxGeometry>
        </mxCell>
        <mxCell id="ttL28P239rOxmT9tzjyc-74" value="" style="endArrow=classic;html=1;rounded=0;exitX=0.5;exitY=1;exitDx=0;exitDy=0;entryX=1;entryY=0.75;entryDx=0;entryDy=0;" edge="1" parent="WIyWlLk6GJQsqaUBKTNV-1" source="ttL28P239rOxmT9tzjyc-54" target="ttL28P239rOxmT9tzjyc-65">
          <mxGeometry width="50" height="50" relative="1" as="geometry">
            <mxPoint x="880" y="610" as="sourcePoint" />
            <mxPoint x="810" y="630" as="targetPoint" />
            <Array as="points">
              <mxPoint x="780" y="720" />
            </Array>
          </mxGeometry>
        </mxCell>
        <mxCell id="ttL28P239rOxmT9tzjyc-75" value="" style="endArrow=classic;html=1;rounded=0;entryX=0.45;entryY=0.1;entryDx=0;entryDy=0;entryPerimeter=0;" edge="1" parent="WIyWlLk6GJQsqaUBKTNV-1" target="ttL28P239rOxmT9tzjyc-67">
          <mxGeometry width="50" height="50" relative="1" as="geometry">
            <mxPoint x="440" y="780" as="sourcePoint" />
            <mxPoint x="490" y="730" as="targetPoint" />
          </mxGeometry>
        </mxCell>
      </root>
    </mxGraphModel>
  </diagram>
</mxfile>
